<svg width="125" height="24" viewBox="0 0 125 24" fill="none" xmlns="http://www.w3.org/2000/svg">
<path d="M13.32 12.96L12.72 18H0.96V17.808L2.928 17.616V1.824L0.96 1.632V1.44H12.744L13.08 5.952L12.84 5.976L11.496 2.616C11.352 2.248 11.192 2.008 11.016 1.896C10.856 1.784 10.584 1.728 10.2 1.728H4.776V9.096H8.328C8.712 9.096 8.984 9.032 9.144 8.904C9.304 8.776 9.416 8.528 9.48 8.16L9.888 6.216H10.176V12.36H9.888L9.48 10.416C9.416 10.048 9.304 9.8 9.144 9.672C8.984 9.544 8.712 9.48 8.328 9.48H4.776V17.712H10.152C10.536 17.712 10.816 17.656 10.992 17.544C11.168 17.416 11.328 17.176 11.472 16.824L13.056 12.936L13.32 12.96ZM25.1884 17.808V18H20.7244V17.808L22.1884 17.616V11.496C22.1884 10.872 22.1724 10.408 22.1404 10.104C22.1084 9.8 22.0444 9.544 21.9484 9.336C21.8204 9.064 21.6044 8.856 21.3004 8.712C21.0124 8.552 20.6764 8.472 20.2924 8.472C19.4764 8.472 18.7484 8.816 18.1084 9.504V17.616L19.5724 17.808V18H15.0844V17.808L16.5484 17.616V9.336L15.1324 8.808V8.64L17.8444 7.704H18.0364V9.216C19.0604 8.128 20.1324 7.584 21.2524 7.584C21.7484 7.584 22.1964 7.696 22.5964 7.92C23.0124 8.128 23.3084 8.408 23.4844 8.76C23.5964 8.968 23.6684 9.256 23.7004 9.624C23.7324 9.976 23.7484 10.6 23.7484 11.496V17.616L25.1884 17.808ZM33.9079 9.288L30.9079 18.072H30.4279L26.8999 9.024C26.7559 8.656 26.5719 8.408 26.3479 8.28C26.1399 8.136 25.7639 8.048 25.2199 8.016V7.824H29.8519V8.016C29.2759 8.048 28.8999 8.096 28.7239 8.16C28.5639 8.208 28.4839 8.296 28.4839 8.424C28.4839 8.52 28.5399 8.728 28.6519 9.048L31.1479 16.128H31.2439L33.4039 9.648C33.4999 9.328 33.5479 9.08 33.5479 8.904C33.5479 8.648 33.4279 8.464 33.1879 8.352C32.9479 8.224 32.5079 8.112 31.8679 8.016V7.824H36.1639V8.016C35.4279 8.096 34.8999 8.232 34.5799 8.424C34.2599 8.6 34.0359 8.888 33.9079 9.288ZM41.0792 7.584C42.0072 7.584 42.8312 7.808 43.5512 8.256C44.2712 8.704 44.8312 9.336 45.2312 10.152C45.6312 10.952 45.8312 11.872 45.8312 12.912C45.8312 13.952 45.6312 14.88 45.2312 15.696C44.8312 16.496 44.2712 17.12 43.5512 17.568C42.8312 18.016 42.0072 18.24 41.0792 18.24C40.1512 18.24 39.3272 18.016 38.6072 17.568C37.8872 17.12 37.3272 16.496 36.9272 15.696C36.5272 14.88 36.3272 13.952 36.3272 12.912C36.3272 11.872 36.5272 10.952 36.9272 10.152C37.3272 9.336 37.8872 8.704 38.6072 8.256C39.3272 7.808 40.1512 7.584 41.0792 7.584ZM38.1032 12.912C38.1032 14.512 38.3672 15.76 38.8952 16.656C39.4232 17.552 40.1512 18 41.0792 18C42.0072 18 42.7352 17.552 43.2632 16.656C43.7912 15.76 44.0552 14.512 44.0552 12.912C44.0552 11.312 43.7912 10.064 43.2632 9.168C42.7352 8.272 42.0072 7.824 41.0792 7.824C40.1512 7.824 39.4232 8.272 38.8952 9.168C38.3672 10.064 38.1032 11.312 38.1032 12.912ZM54.8933 7.416C54.5733 7.416 54.3413 7.744 54.1973 8.4C54.6133 8.72 54.9333 9.112 55.1573 9.576C55.3813 10.024 55.4933 10.528 55.4933 11.088C55.4933 11.952 55.2293 12.696 54.7013 13.32C54.1893 13.928 53.5013 14.32 52.6373 14.496C52.4453 14.544 52.2533 14.568 52.0613 14.568C51.2293 14.712 50.5813 14.912 50.1173 15.168C49.6693 15.424 49.4453 15.712 49.4453 16.032C49.4453 16.256 49.5173 16.448 49.6613 16.608C49.8053 16.752 50.0773 16.896 50.4773 17.04C50.8773 17.168 51.4773 17.304 52.2773 17.448C53.6373 17.704 54.6053 18.064 55.1813 18.528C55.7573 18.992 56.0453 19.648 56.0453 20.496C56.0453 21.136 55.8373 21.712 55.4213 22.224C55.0053 22.752 54.4293 23.16 53.6933 23.448C52.9573 23.752 52.1333 23.904 51.2213 23.904C49.8933 23.904 48.8613 23.664 48.1253 23.184C47.4053 22.72 47.0453 22.064 47.0453 21.216C47.0453 20.624 47.2773 20.072 47.7413 19.56C48.2213 19.064 48.8613 18.688 49.6613 18.432C49.1013 18.208 48.6933 17.96 48.4373 17.688C48.1973 17.4 48.0773 17.064 48.0773 16.68C48.0773 16.232 48.3413 15.824 48.8693 15.456C49.4133 15.088 50.1893 14.792 51.1973 14.568C50.2053 14.472 49.3973 14.104 48.7733 13.464C48.1653 12.824 47.8613 12.024 47.8613 11.064C47.8613 10.04 48.2133 9.208 48.9173 8.568C49.6373 7.912 50.5573 7.584 51.6773 7.584C52.5733 7.584 53.3493 7.8 54.0053 8.232C54.4053 6.856 55.0213 6.168 55.8533 6.168C56.1573 6.168 56.3973 6.256 56.5733 6.432C56.7493 6.592 56.8373 6.808 56.8373 7.08C56.8373 7.304 56.7573 7.496 56.5973 7.656C56.4373 7.816 56.2453 7.896 56.0213 7.896C55.8293 7.896 55.6293 7.808 55.4213 7.632C55.3893 7.616 55.3173 7.576 55.2053 7.512C55.1093 7.448 55.0053 7.416 54.8933 7.416ZM51.6773 14.352C52.2853 14.352 52.7733 14.048 53.1413 13.44C53.5253 12.832 53.7173 12.048 53.7173 11.088C53.7173 10.128 53.5253 9.344 53.1413 8.736C52.7733 8.128 52.2853 7.824 51.6773 7.824C51.0693 7.824 50.5733 8.128 50.1893 8.736C49.8213 9.344 49.6373 10.128 49.6373 11.088C49.6373 12.048 49.8213 12.832 50.1893 13.44C50.5733 14.048 51.0693 14.352 51.6773 14.352ZM54.6533 21.216C54.6533 20.608 54.4373 20.136 54.0053 19.8C53.5733 19.48 52.7573 19.2 51.5573 18.96C50.8853 18.848 50.3333 18.704 49.9013 18.528C48.7653 18.928 48.1973 19.752 48.1973 21C48.1973 21.848 48.4693 22.504 49.0133 22.968C49.5733 23.432 50.3573 23.664 51.3653 23.664C52.3733 23.664 53.1733 23.44 53.7653 22.992C54.3573 22.56 54.6533 21.968 54.6533 21.216ZM66.5649 16.8V16.92L63.9489 18.12H63.8049V16.488L63.7329 16.464C62.7889 17.648 61.7729 18.24 60.6849 18.24C60.1889 18.24 59.7489 18.136 59.3649 17.928C58.9809 17.72 58.7009 17.432 58.5249 17.064C58.4129 16.856 58.3409 16.576 58.3089 16.224C58.2769 15.856 58.2609 15.224 58.2609 14.328V8.208L56.8209 8.016V7.824H59.8209V14.328C59.8209 14.968 59.8369 15.44 59.8689 15.744C59.9009 16.032 59.9649 16.28 60.0609 16.488C60.1729 16.744 60.3569 16.952 60.6129 17.112C60.8849 17.256 61.1889 17.328 61.5249 17.328C61.9249 17.328 62.3089 17.232 62.6769 17.04C63.0449 16.832 63.3809 16.536 63.6849 16.152V8.208L62.2449 8.016V7.824H65.2449V16.512L66.5649 16.8ZM76.1976 15.264L76.2936 15.312L76.1976 15.576C75.8776 16.424 75.3976 17.08 74.7576 17.544C74.1336 18.008 73.3816 18.24 72.5016 18.24C71.6376 18.24 70.8696 18.016 70.1976 17.568C69.5256 17.12 68.9976 16.496 68.6136 15.696C68.2456 14.896 68.0616 13.976 68.0616 12.936C68.0616 11.896 68.2616 10.968 68.6616 10.152C69.0616 9.336 69.6296 8.704 70.3656 8.256C71.1016 7.808 71.9416 7.584 72.8856 7.584C74.0056 7.584 74.8616 7.92 75.4536 8.592C76.0616 9.248 76.3736 10.208 76.3896 11.472L76.2456 11.592H69.7656C69.7336 12.008 69.7176 12.336 69.7176 12.576C69.7176 14.032 70.0136 15.144 70.6056 15.912C71.1976 16.664 72.0216 17.04 73.0776 17.04C73.6216 17.04 74.1416 16.92 74.6376 16.68C75.1496 16.424 75.5976 16.048 75.9816 15.552L76.1976 15.264ZM72.6216 7.848C71.8696 7.848 71.2456 8.16 70.7496 8.784C70.2536 9.408 69.9336 10.256 69.7896 11.328L74.4456 11.16C74.4936 10.968 74.5176 10.648 74.5176 10.2C74.5176 9.336 74.3496 8.728 74.0136 8.376C73.6936 8.024 73.2296 7.848 72.6216 7.848ZM96.3356 12.96L95.7356 18H83.9756V17.808L85.9436 17.616V1.824L83.9756 1.632V1.44H95.7596L96.0956 5.952L95.8556 5.976L94.5116 2.616C94.3676 2.248 94.2076 2.008 94.0316 1.896C93.8716 1.784 93.5996 1.728 93.2156 1.728H87.7916V9.096H91.3436C91.7276 9.096 91.9996 9.032 92.1596 8.904C92.3196 8.776 92.4316 8.528 92.4956 8.16L92.9036 6.216H93.1916V12.36H92.9036L92.4956 10.416C92.4316 10.048 92.3196 9.8 92.1596 9.672C91.9996 9.544 91.7276 9.48 91.3436 9.48H87.7916V17.712H93.1676C93.5516 17.712 93.8316 17.656 94.0076 17.544C94.1836 17.416 94.3436 17.176 94.4876 16.824L96.0716 12.936L96.3356 12.96ZM101.214 0.696V17.616L102.678 17.808V18H98.1898V17.808L99.6538 17.616V2.328L98.2378 1.8V1.632L101.022 0.696H101.214ZM104.974 3.312C104.766 3.52 104.662 3.792 104.662 4.128C104.662 4.464 104.766 4.744 104.974 4.968C105.198 5.176 105.478 5.28 105.814 5.28C106.15 5.28 106.422 5.176 106.63 4.968C106.854 4.744 106.966 4.464 106.966 4.128C106.966 3.792 106.854 3.52 106.63 3.312C106.422 3.088 106.15 2.976 105.814 2.976C105.478 2.976 105.198 3.088 104.974 3.312ZM106.726 7.584V17.616L108.19 17.808V18H103.702V17.808L105.166 17.616V9.216L103.75 8.688V8.52L106.534 7.584H106.726ZM109.162 8.064L111.802 5.52L111.898 5.544V7.824H114.634L114.49 8.208H111.898V15.552C111.898 16.112 111.986 16.528 112.162 16.8C112.354 17.184 112.714 17.376 113.242 17.376C113.498 17.376 113.746 17.312 113.986 17.184C114.226 17.056 114.49 16.848 114.778 16.56L114.874 16.632C114.634 17.128 114.29 17.52 113.842 17.808C113.41 18.096 112.946 18.24 112.45 18.24C111.938 18.24 111.482 18.096 111.082 17.808C110.81 17.616 110.618 17.368 110.506 17.064C110.394 16.76 110.338 16.36 110.338 15.864V8.184H109.21L109.162 8.064ZM124.104 15.264L124.2 15.312L124.104 15.576C123.784 16.424 123.304 17.08 122.664 17.544C122.04 18.008 121.288 18.24 120.408 18.24C119.544 18.24 118.776 18.016 118.104 17.568C117.432 17.12 116.904 16.496 116.52 15.696C116.152 14.896 115.968 13.976 115.968 12.936C115.968 11.896 116.168 10.968 116.568 10.152C116.968 9.336 117.536 8.704 118.272 8.256C119.008 7.808 119.848 7.584 120.792 7.584C121.912 7.584 122.768 7.92 123.36 8.592C123.968 9.248 124.28 10.208 124.296 11.472L124.152 11.592H117.672C117.64 12.008 117.624 12.336 117.624 12.576C117.624 14.032 117.92 15.144 118.512 15.912C119.104 16.664 119.928 17.04 120.984 17.04C121.528 17.04 122.048 16.92 122.544 16.68C123.056 16.424 123.504 16.048 123.888 15.552L124.104 15.264ZM120.528 7.848C119.776 7.848 119.152 8.16 118.656 8.784C118.16 9.408 117.84 10.256 117.696 11.328L122.352 11.16C122.4 10.968 122.424 10.648 122.424 10.2C122.424 9.336 122.256 8.728 121.92 8.376C121.6 8.024 121.136 7.848 120.528 7.848Z" fill="#F9F5F6"/>
</svg>
