<svg width="99" height="27" viewBox="0 0 99 27" fill="none" xmlns="http://www.w3.org/2000/svg">
<path d="M0.504586 0.527115H13.2269C24.1657 0.527115 28.4461 6.85249 28.4461 13.5488C28.4461 20.3623 22.9569 26.4338 12.5135 26.4338H0.524403C0.30642 26.4338 0.227153 26.2972 0.227153 26.18C0.227153 26.0434 0.36587 25.9262 0.564036 25.9262H2.80332C3.4969 25.9262 3.95269 25.5163 3.95269 24.7549V2.24512C3.95269 1.67896 3.67525 1.05423 2.76369 1.05423H0.48477C0.30642 1.05423 0.207336 0.937093 0.207336 0.800434C0.207336 0.683297 0.24697 0.527115 0.504586 0.527115ZM8.45107 25.2234C8.45107 25.7896 8.70869 25.9653 9.0852 25.9653H12.454C20.7572 25.9653 23.7694 19.6985 23.7694 13.4121C23.7694 7.12581 20.5789 1.03471 13.5638 1.03471H8.98612C8.51052 1.03471 8.47089 1.42516 8.47089 1.60087L8.45107 25.2234ZM29.7144 0.527115C29.5162 0.527115 29.3378 0.605206 29.3378 0.761388C29.3378 0.917571 29.4369 1.01518 29.6153 1.01518H31.8546C32.3698 1.01518 32.8652 1.36659 32.8652 2.34273V24.7744C32.8652 25.2429 32.5085 25.9458 31.8744 25.9458H29.6549C29.3973 25.9458 29.3775 26.141 29.3775 26.2191C29.3775 26.2972 29.3577 26.4338 29.6549 26.4338H40.4352C40.5937 26.4338 40.8117 26.4143 40.8117 26.2581C40.8117 26.102 40.7721 25.9458 40.4946 25.9458H38.4139C38.1166 25.9458 37.3041 25.7701 37.3041 24.872V2.10846C37.3041 1.46421 37.7203 1.03471 38.4733 1.03471H40.5144C40.6928 1.03471 40.7919 0.937093 40.7919 0.800434C40.7919 0.663774 40.6928 0.546638 40.455 0.546638H29.7144V0.527115ZM46.5585 13.4902C46.5585 6.32538 49.8085 0.527115 55.912 0.527115C61.8966 0.527115 65.2655 6.32538 65.2655 13.4902C65.2655 20.6551 62.1939 26.4534 55.912 26.4534C49.8283 26.4729 46.5585 20.6551 46.5585 13.4902ZM55.912 27C64.5917 27 70.0611 20.9479 70.0611 13.5098C70.0611 6.07158 64.6512 0 55.912 0C47.1927 0 41.7629 6.05206 41.7629 13.4902C41.7629 20.9284 47.4106 27 55.912 27ZM97.8044 26.2777C94.396 26.6291 92.5134 21.1236 90.7893 18.5076C89.5013 16.5748 86.7666 14.603 84.0715 14.2126C88.5104 13.9588 93.4844 12.5531 93.4844 7.59436C93.4844 3.57267 90.9677 0.527115 81.7331 0.527115H71.0916C70.9529 0.527115 70.8141 0.605206 70.8141 0.761388C70.8141 0.917571 70.9529 1.01518 71.0916 1.01518H73.529C74.0443 1.01518 74.5397 1.36659 74.5397 2.34273V24.7744C74.5397 25.2429 74.183 25.9458 73.5488 25.9458H71.151C70.9529 25.9458 70.8736 26.102 70.8736 26.18C70.8736 26.2581 70.9529 26.4338 71.151 26.4338H82.4465C82.605 26.4338 82.7438 26.3557 82.7438 26.1996C82.7438 26.0434 82.6447 25.9458 82.4267 25.9458H80.1478C79.8505 25.9458 79.038 25.7505 79.038 24.872V14.2711H80.2072C85.7955 14.2711 86.2117 20.2451 88.986 23.6616C91.364 26.59 94.4752 26.961 96.2389 26.961C96.992 26.961 97.5072 26.9414 97.9828 26.8243C98.28 26.7267 98.3395 26.2191 97.8044 26.2777ZM80.1676 1.01518H81.8124C84.6264 1.01518 89.1842 2.10846 89.1842 7.34056C89.1842 12.1432 85.1416 13.7636 81.3962 13.7636H78.9984V2.10846C78.9984 1.44469 79.4146 1.01518 80.1676 1.01518Z" fill="black"/>
</svg>
