<svg width="166" height="27" viewBox="0 0 166 27" fill="none" xmlns="http://www.w3.org/2000/svg">
<path fill-rule="evenodd" clip-rule="evenodd" d="M0.207336 13.4971C0.207336 6.07838 6.20861 0.5 14.1918 0.5C17.4428 0.5 20.2746 1.38864 22.8649 3.16305C24.2968 4.14629 24.9575 4.89161 24.9575 5.79459V10.1231H24.9255C22.7223 4.95468 18.7292 1.73836 14.1918 1.73836C8.78432 1.73836 4.8087 6.70043 4.8087 13.5144C4.8087 20.3769 8.84836 25.2128 14.4159 25.2128C17.8589 25.2128 20.9179 22.8823 20.9179 20.4744V17.5276C20.9179 16.2604 20.4027 15.2457 19.4684 14.7068V14.6752H26.4215V14.7068C25.4872 15.2457 24.9721 16.2604 24.9721 17.5276V21.0162C24.9721 21.9994 24.2968 23.0773 22.0588 24.3757C19.6926 25.7546 16.8927 26.5 14.0755 26.5C6.16204 26.4942 0.207336 20.9159 0.207336 13.4971ZM45.5254 24.0376C43.7704 22.5957 42.7895 20.6148 42.7895 18.141V4.1463C42.7895 2.87927 42.2744 1.8645 41.3403 1.32558V1.29405H48.2931V1.32558C47.359 1.8645 46.8437 2.87927 46.8437 4.1463V17.539C46.8437 19.6947 47.519 21.3917 48.7588 22.6272C50.1762 24.0376 52.3154 24.8631 54.9696 24.8947C59.9116 24.9434 63.113 22.0883 63.113 17.9202V4.1463C63.113 2.87927 62.5978 1.8645 61.6636 1.32558V1.29405H65.7848V1.32558C64.8505 1.8645 64.3354 2.87927 64.3354 4.1463V17.9375C64.3354 23.04 60.1357 26.497 53.7939 26.497C50.1908 26.4942 47.423 25.5769 45.5254 24.0376ZM79.7547 13.5144C79.7547 6.08124 85.7559 0.5 93.7392 0.5C96.9727 0.5 99.8221 1.38864 102.412 3.16305C103.844 4.14629 104.505 4.89161 104.505 5.79459V10.1231H104.473C102.27 4.95468 98.2766 1.73836 93.6578 1.73836C88.3317 1.73836 84.3561 6.70043 84.3561 13.5144C84.3561 20.2995 88.3317 25.2444 93.8178 25.2444C98.2446 25.2444 102.427 22.0424 105.148 16.7335H105.18L104.583 21.2341C104.47 22.0912 103.844 22.868 102.412 23.8484C99.8221 25.6228 96.9727 26.4942 93.7392 26.4942C85.66 26.4627 79.7547 20.9159 79.7547 13.5144ZM119.037 13.5144C119.037 6.08124 125.038 0.5 133.021 0.5C136.254 0.5 139.104 1.38864 141.694 3.16305C143.126 4.14629 143.786 4.89161 143.786 5.79459V10.1231H143.755C141.551 4.95468 137.559 1.73836 132.939 1.73836C127.613 1.73836 123.638 6.70043 123.638 13.5144C123.638 20.2995 127.613 25.2444 133.1 25.2444C137.526 25.2444 141.709 22.0424 144.43 16.7335H144.462L143.865 21.2341C143.752 22.0912 143.126 22.868 141.691 23.8484C139.1 25.6228 136.252 26.4942 133.019 26.4942C124.945 26.4627 119.037 20.9159 119.037 13.5144ZM159.704 22.8508V4.1463C159.704 2.87927 159.188 1.8645 158.254 1.32558V1.29405H165.207V1.32558C164.273 1.8645 163.759 2.87927 163.759 4.1463V22.8508C163.759 24.1178 164.273 25.1326 165.207 25.6715V25.703H158.254V25.6715C159.188 25.1326 159.704 24.1178 159.704 22.8508Z" fill="black"/>
</svg>
