<svg width="200" height="23" viewBox="0 0 200 23" fill="none" xmlns="http://www.w3.org/2000/svg">
<path fill-rule="evenodd" clip-rule="evenodd" d="M89.3702 0.910992L94.4007 13.8229L99.4312 0.910992H103.023L94.7869 22.0876L94.4007 22.5L94.0131 22.0876L85.7767 0.910992H89.3702ZM71.2943 0.910992C73.2295 0.910992 75.0645 1.98687 76.0756 3.55789L74.1417 5.61706H73.5327C73.132 4.7053 72.25 4.14703 71.2943 4.14703C70.1566 4.14703 69.0902 5.14295 69.0269 6.41099C68.9808 7.36483 69.3921 7.96098 70.1342 8.47016C70.9331 9.01862 71.26 9.24726 72.3449 9.88128C73.5274 10.5728 76.5185 11.9292 76.5185 15.4991C76.5185 19.0185 73.7542 22.2924 70.1883 22.2924C69.7308 22.2924 68.9017 22.2377 68.2821 22.0862C66.5354 21.6359 65.4755 20.9332 64.3299 19.4982L66.8175 16.7924L67.6744 17.5569C68.0606 17.8795 68.9096 18.5289 69.7177 18.6454C71.3602 18.8824 72.4623 17.7266 72.6758 16.5862C72.8459 15.6857 72.631 14.3419 71.2666 13.6461C71.2666 13.6461 68.8067 12.1915 67.7284 11.5281C66.6303 10.852 65.4623 9.00599 65.4623 6.79393C65.4623 5.14716 66.1716 3.55228 67.3145 2.44134C68.1977 1.58008 69.4092 0.910992 71.2943 0.910992ZM183.01 0.5L195.889 14.2044V1.32339L196.277 0.910992H198.82L199.207 1.32339V22.0862H198.598L185.94 8.61744V21.6752L185.553 22.0862H183.01L182.624 21.6752V0.910992L183.01 0.5ZM145.035 0.910992V4.0292L144.647 4.44019H141.718V22.0862H138.401V4.44019H135.085V1.32339L135.472 0.910992H145.035ZM157.196 0.910992V4.0292L156.808 4.44019H153.879V22.0862H150.562V4.44019H147.246V1.32339L147.633 0.910992H157.196ZM3.52407 0.910992V18.557H10.1575V22.0862H0.207336V1.32339L0.593585 0.910992H3.52407ZM22.3184 0.910992C24.9574 0.910992 27.4883 2.02647 29.3543 4.01203C31.2203 5.99759 32.2686 8.69059 32.2686 11.4986C32.2686 14.3066 31.2203 16.9996 29.3543 18.9852C27.4883 20.9707 24.9574 22.0862 22.3184 22.0862C19.6795 22.0862 17.1486 20.9707 15.2826 18.9852C13.4166 16.9996 12.3682 14.3066 12.3682 11.4986C12.3682 8.69059 13.4166 5.99759 15.2826 4.01203C17.1486 2.02647 19.6795 0.910992 22.3184 0.910992ZM169.357 0.910992C171.996 0.910992 174.527 2.02647 176.393 4.01203C178.259 5.99759 179.307 8.69059 179.307 11.4986C179.307 14.3066 178.259 16.9996 176.393 18.9852C174.527 20.9707 171.996 22.0862 169.357 22.0862C166.718 22.0862 164.187 20.9707 162.321 18.9852C160.455 16.9996 159.407 14.3066 159.407 11.4986C159.407 8.69059 160.455 5.99759 162.321 4.01203C164.187 2.02647 166.718 0.910992 169.357 0.910992ZM39.6206 0.910992L40.0068 1.32339V15.0278C40.0068 15.9638 40.3562 16.8615 40.9783 17.5233C41.6003 18.1852 42.4439 18.557 43.3235 18.557C44.2032 18.557 45.0468 18.1852 45.6688 17.5233C46.2908 16.8615 46.6403 15.9638 46.6403 15.0278V1.32339L47.0278 0.910992H49.5708L49.957 1.32339V15.0278C49.957 16.8998 49.2581 18.6951 48.0141 20.0188C46.7701 21.3426 45.0828 22.0862 43.3235 22.0862C41.5642 22.0862 39.877 21.3426 38.633 20.0188C37.389 18.6951 36.6901 16.8998 36.6901 15.0278V1.32339L37.0776 0.910992H39.6206ZM59.9072 0.910992V21.6752L59.5196 22.0862H56.5905V1.32339L56.9767 0.910992H59.9072ZM109.271 0.910992L109.657 1.32339V15.0278C109.657 15.9638 110.006 16.8615 110.628 17.5233C111.25 18.1852 112.094 18.557 112.974 18.557C113.853 18.557 114.697 18.1852 115.319 17.5233C115.941 16.8615 116.29 15.9638 116.29 15.0278V1.32339L116.678 0.910992H119.219L119.607 1.32339V15.0278C119.607 16.8998 118.908 18.6951 117.664 20.0188C116.42 21.3426 114.733 22.0862 112.974 22.0862C111.214 22.0862 109.527 21.3426 108.283 20.0188C107.039 18.6951 106.34 16.8998 106.34 15.0278V1.32339L106.728 0.910992H109.271ZM129.557 0.910992V21.6752L129.17 22.0862H126.241V1.32339L126.627 0.910992H129.557ZM22.3171 4.4416C21.4459 4.44169 20.5833 4.62437 19.7784 4.97921C18.9736 5.33405 18.2423 5.85409 17.6263 6.50966C16.3823 7.83363 15.6835 9.62921 15.6837 11.5014C15.6838 13.3736 16.383 15.169 17.6272 16.4927C18.8715 17.8164 20.559 18.56 22.3184 18.5598C24.0779 18.5598 25.7653 17.8161 27.0095 16.4922C28.2536 15.1684 28.9526 13.3729 28.9526 11.5007C28.9526 9.62851 28.2536 7.833 27.0095 6.50916C25.7653 5.18532 24.0779 4.4416 22.3184 4.4416H22.3171ZM169.357 4.4416C167.597 4.4416 165.91 5.18532 164.666 6.50916C163.422 7.833 162.723 9.62851 162.723 11.5007C162.723 13.3729 163.422 15.1684 164.666 16.4922C165.91 17.8161 167.597 18.5598 169.357 18.5598C171.116 18.5598 172.804 17.8161 174.048 16.4922C175.292 15.1684 175.991 13.3729 175.991 11.5007C175.991 9.62851 175.292 7.833 174.048 6.50916C172.804 5.18532 171.116 4.4416 169.357 4.4416Z" fill="black"/>
</svg>
