<svg width="128" height="21" viewBox="0 0 128 21" fill="none" xmlns="http://www.w3.org/2000/svg">
<path d="M15.1658 12.8529H8.41981V17.7059C8.41981 20.0588 10.6196 20.0588 10.9129 20.0588V20.3529H0.207336V20.0588C0.500639 20.0588 2.70041 19.9118 2.70041 17.7059V3.14706C2.70041 0.794118 0.500639 0.794118 0.207336 0.794118V0.5H15.1658C19.8586 0.5 22.205 3.58824 22.205 6.67647C22.205 9.76471 20.0053 12.8529 15.1658 12.8529ZM12.526 1.82353H8.41981V11.5294H12.526C15.6057 11.5294 17.0722 9.32353 17.0722 6.67647C17.0722 4.17647 15.6057 1.82353 12.526 1.82353ZM42.1496 20.5L32.9106 12.8529V17.7059C32.9106 20.0588 35.1103 20.0588 35.4036 20.0588V20.3529H24.6981V20.0588C24.9914 20.0588 27.1912 19.9118 27.1912 17.7059V3.14706C27.1912 0.794118 24.9914 0.794118 24.6981 0.794118V0.5H39.6565C44.3494 0.5 46.6958 3.58824 46.6958 6.67647C46.6958 9.76471 44.496 12.8529 39.6565 12.8529H35.1103C36.1369 13.8824 38.3367 14.3235 40.2431 14.3235C41.123 14.3235 42.0029 14.1765 42.7362 14.0294L50.3621 20.2059V20.5H42.1496ZM37.0168 1.82353H32.7639V11.5294H37.0168C40.0965 11.5294 41.563 9.32353 41.563 6.67647C41.563 4.17647 40.0965 1.82353 37.0168 1.82353ZM66.787 20.5V20.2059C67.8136 20.2059 68.2535 19.9118 68.2535 19.1765C68.2535 18.8824 68.1069 18.4412 67.9602 18L65.9071 14.6176H57.548L56.0815 17.5588C55.9348 18 55.7882 18.4412 55.7882 18.8824C55.7882 19.6176 56.0815 20.0588 56.9614 20.0588V20.3529H51.8286V20.0588C53.0018 20.0588 53.8817 19.1765 54.615 17.7059L60.7743 5.35294L59.0145 2.55882C58.1346 1.08824 57.2547 0.794118 56.2281 0.794118V0.5H64.4406L74.4129 18C74.9995 19.0294 75.7327 20.2059 77.0526 20.2059V20.5H66.787ZM61.5076 6.82353L58.2812 13.1471H65.1738L61.5076 6.82353ZM90.8378 20.5H79.1057V20.2059C79.399 20.2059 81.5988 20.0588 81.5988 17.8529V3.29412C81.5988 0.941176 79.399 0.941176 79.1057 0.941176V0.647059H90.8378C96.1173 0.647059 101.543 4.02941 101.543 10.6471C101.69 17.1176 96.1173 20.5 90.8378 20.5ZM94.9441 6.82353C94.9441 3.14706 92.5976 1.82353 90.1046 1.82353H87.3182V19.1765H90.1046C92.5976 19.1765 94.9441 17.8529 94.9441 14.1765V6.82353ZM116.942 20.5V20.2059C117.968 20.2059 118.408 19.9118 118.408 19.1765C118.408 18.8824 118.262 18.4412 118.115 18L116.208 14.6176H107.849L106.383 17.5588C106.236 18 106.09 18.4412 106.09 18.8824C106.09 19.6176 106.383 20.0588 107.263 20.0588V20.3529H102.13V20.0588C103.303 20.0588 104.183 19.1765 104.916 17.7059L111.076 5.35294L109.316 2.55882C108.436 1.08824 107.556 0.794118 106.53 0.794118V0.5H114.595L124.568 18C125.154 19.0294 125.887 20.2059 127.207 20.2059V20.5H116.942ZM111.662 6.82353L108.436 13.2941H115.329L111.662 6.82353Z" fill="black"/>
</svg>
