<svg width="179" height="21" viewBox="0 0 179 21" fill="none" xmlns="http://www.w3.org/2000/svg">
<path d="M9.29072 8.9175C5.06507 7.70673 4.32679 7.52618 4.32679 6.13485C4.32679 4.74353 5.68677 4.0638 6.84275 4.0638C8.5913 4.0638 10.0193 4.6267 10.1456 6.81458H13.7009C13.7009 2.56627 10.4953 0.941284 7.00789 0.941284C3.9868 0.941284 0.771418 2.7362 0.771418 6.4641C0.771418 9.89461 3.27767 10.9355 5.75477 11.6577C8.23188 12.3799 10.709 12.7197 10.709 14.674C10.709 16.6282 8.76615 16.9468 7.46446 16.9468C5.52163 16.9468 3.76337 16.0016 3.76337 13.5694H0.207998C0.149713 18.0514 3.62737 20.0587 7.30903 20.0587C11.8455 20.0587 14.2449 17.5522 14.2449 14.196C14.2449 10.0645 10.5147 9.2255 9.29072 8.9175Z" fill="black"/>
<path d="M31.7498 1.36603H35.412V19.6338H31.7498V1.36603Z" fill="black"/>
<path d="M48.8273 13.6118L41.8137 1.36603H38.1709V19.6126H41.6V7.39864H41.6583L48.6039 19.6126H52.2661V4.74344H57.1232V19.6126H60.7951V4.74344H65.8076V1.36603H48.8273V13.6118Z" fill="black"/>
<path d="M20.5202 1.36603L14.1769 19.6126H17.9071L19.2088 15.5448H25.4647L26.7276 19.6126H30.5161L24.2893 1.36603H20.5202ZM20.1705 12.5603L22.3368 5.85862H22.3951L24.4933 12.5603H20.1705Z" fill="black"/>
<path d="M140.092 11.7744H148.183V8.65189H140.092V4.73282H148.834V1.36603H136.39V19.6126H149.019V16.2458H140.092V11.7744Z" fill="black"/>
<path d="M161.832 1.36603V13.6118L154.818 1.36603H151.185V19.6126H154.663V7.39864L161.599 19.6126H165.271V4.74344H170.128V19.6126H173.79V4.74344H178.793V1.36603H161.832Z" fill="black"/>
<path d="M131.096 11.0417V10.978C131.932 10.6328 132.642 9.99914 133.119 9.17315C133.595 8.34715 133.813 7.37377 133.738 6.40045C133.742 5.71456 133.617 5.03512 133.371 4.40417C133.125 3.77323 132.763 3.20421 132.308 2.73231C131.853 2.26042 131.314 1.8957 130.724 1.66072C130.135 1.42573 129.508 1.32549 128.881 1.36619H119.886V19.6127H123.548V12.4862H127.22C129.066 12.4862 129.736 13.3252 130.008 15.237C130.048 16.7152 130.244 18.1834 130.591 19.6127H134.263C133.602 18.5506 133.632 16.4265 133.564 15.3007C133.418 13.4633 132.903 11.5515 131.096 11.0417ZM127.551 9.62917H123.577V4.48871H127.589C129.231 4.48871 130.115 5.25341 130.115 7.01646C130.115 8.77951 129.173 9.61855 127.551 9.61855V9.62917Z" fill="black"/>
<path d="M113.494 12.709C113.494 15.4173 112.659 16.6706 110.046 16.6706C107.073 16.6706 106.617 14.7057 106.617 12.709V1.36603H102.945V12.709C102.945 17.6689 105.558 20.0374 110.055 20.0374C114.553 20.0374 117.176 17.6371 117.176 12.709V1.36603H113.514V12.709H113.494Z" fill="black"/>
<path d="M92.366 1.36603L86.0226 19.6126H89.7432L91.0449 15.5448H97.2911L98.5442 19.6126H102.352L96.1253 1.36603H92.366ZM92.0066 12.5603L94.1825 5.85862H94.2408L96.3779 12.5603H92.0066Z" fill="black"/>
<path d="M76.9496 1.36603H73.2388V19.6126H85.0415V16.2458H76.9496V1.36603Z" fill="black"/>
</svg>
